<mxfile host="app.diagrams.net" modified="2024-06-23T18:41:50.293Z" agent="Mozilla/5.0 (Windows NT 10.0; Win64; x64) AppleWebKit/537.36 (KHTML, like Gecko) Chrome/126.0.0.0 Safari/537.36" etag="qG7nrzOKs5rpxopT2B4I" version="24.6.2" type="github">
  <diagram id="C5RBs43oDa-KdzZeNtuy" name="Page-1">
    <mxGraphModel dx="1434" dy="738" grid="1" gridSize="10" guides="1" tooltips="1" connect="1" arrows="1" fold="1" page="1" pageScale="1" pageWidth="827" pageHeight="1169" math="0" shadow="0">
      <root>
        <mxCell id="WIyWlLk6GJQsqaUBKTNV-0" />
        <mxCell id="WIyWlLk6GJQsqaUBKTNV-1" parent="WIyWlLk6GJQsqaUBKTNV-0" />
        <mxCell id="60xaNnohi2vOc2Uw0-Jc-33" style="rounded=0;orthogonalLoop=1;jettySize=auto;html=1;shape=link;strokeColor=#FF3333;" edge="1" parent="WIyWlLk6GJQsqaUBKTNV-1" source="60xaNnohi2vOc2Uw0-Jc-0" target="60xaNnohi2vOc2Uw0-Jc-3">
          <mxGeometry relative="1" as="geometry" />
        </mxCell>
        <mxCell id="60xaNnohi2vOc2Uw0-Jc-34" value="8. Perform Responsive Action" style="edgeLabel;html=1;align=center;verticalAlign=middle;resizable=0;points=[];" vertex="1" connectable="0" parent="60xaNnohi2vOc2Uw0-Jc-33">
          <mxGeometry x="-0.0272" y="2" relative="1" as="geometry">
            <mxPoint as="offset" />
          </mxGeometry>
        </mxCell>
        <mxCell id="60xaNnohi2vOc2Uw0-Jc-0" value="Windows 10 Client&lt;div&gt;Wazuh Agent&lt;br&gt;&lt;div&gt;&lt;br&gt;&lt;/div&gt;&lt;/div&gt;" style="verticalAlign=top;verticalLabelPosition=bottom;labelPosition=center;align=center;html=1;outlineConnect=0;fillColor=#f8cecc;strokeColor=#b85450;gradientDirection=north;strokeWidth=2;shape=mxgraph.networks.pc;" vertex="1" parent="WIyWlLk6GJQsqaUBKTNV-1">
          <mxGeometry x="350" y="515" width="100" height="70" as="geometry" />
        </mxCell>
        <mxCell id="60xaNnohi2vOc2Uw0-Jc-13" style="edgeStyle=orthogonalEdgeStyle;rounded=0;orthogonalLoop=1;jettySize=auto;html=1;shape=link;strokeColor=#8f8f8f;" edge="1" parent="WIyWlLk6GJQsqaUBKTNV-1" source="60xaNnohi2vOc2Uw0-Jc-1" target="60xaNnohi2vOc2Uw0-Jc-2">
          <mxGeometry relative="1" as="geometry" />
        </mxCell>
        <mxCell id="60xaNnohi2vOc2Uw0-Jc-1" value="Router" style="sketch=0;points=[[0.5,0,0],[1,0.5,0],[0.5,1,0],[0,0.5,0],[0.145,0.145,0],[0.8555,0.145,0],[0.855,0.8555,0],[0.145,0.855,0]];verticalLabelPosition=bottom;html=1;verticalAlign=top;aspect=fixed;align=center;pointerEvents=1;shape=mxgraph.cisco19.rect;prIcon=router;fillColor=#FAFAFA;strokeColor=#005073;" vertex="1" parent="WIyWlLk6GJQsqaUBKTNV-1">
          <mxGeometry x="375" y="360" width="50" height="50" as="geometry" />
        </mxCell>
        <mxCell id="60xaNnohi2vOc2Uw0-Jc-14" style="edgeStyle=orthogonalEdgeStyle;rounded=0;orthogonalLoop=1;jettySize=auto;html=1;shape=link;strokeColor=#878787;" edge="1" parent="WIyWlLk6GJQsqaUBKTNV-1" source="60xaNnohi2vOc2Uw0-Jc-2" target="60xaNnohi2vOc2Uw0-Jc-3">
          <mxGeometry relative="1" as="geometry" />
        </mxCell>
        <mxCell id="60xaNnohi2vOc2Uw0-Jc-15" value="Text" style="edgeLabel;html=1;align=center;verticalAlign=middle;resizable=0;points=[];" vertex="1" connectable="0" parent="60xaNnohi2vOc2Uw0-Jc-14">
          <mxGeometry x="0.1579" y="-1" relative="1" as="geometry">
            <mxPoint as="offset" />
          </mxGeometry>
        </mxCell>
        <mxCell id="60xaNnohi2vOc2Uw0-Jc-17" value="2. Receive Events" style="edgeLabel;html=1;align=center;verticalAlign=middle;resizable=0;points=[];" vertex="1" connectable="0" parent="60xaNnohi2vOc2Uw0-Jc-14">
          <mxGeometry x="0.1158" y="-3" relative="1" as="geometry">
            <mxPoint as="offset" />
          </mxGeometry>
        </mxCell>
        <mxCell id="60xaNnohi2vOc2Uw0-Jc-18" style="rounded=0;orthogonalLoop=1;jettySize=auto;html=1;shape=link;strokeColor=#0DFF05;" edge="1" parent="WIyWlLk6GJQsqaUBKTNV-1" source="60xaNnohi2vOc2Uw0-Jc-2" target="60xaNnohi2vOc2Uw0-Jc-6">
          <mxGeometry relative="1" as="geometry" />
        </mxCell>
        <mxCell id="60xaNnohi2vOc2Uw0-Jc-19" value="4. Enrich IOCS" style="edgeLabel;html=1;align=center;verticalAlign=middle;resizable=0;points=[];" vertex="1" connectable="0" parent="60xaNnohi2vOc2Uw0-Jc-18">
          <mxGeometry x="-0.0036" relative="1" as="geometry">
            <mxPoint as="offset" />
          </mxGeometry>
        </mxCell>
        <mxCell id="60xaNnohi2vOc2Uw0-Jc-30" style="rounded=0;orthogonalLoop=1;jettySize=auto;html=1;shape=link;strokeColor=#FF3333;" edge="1" parent="WIyWlLk6GJQsqaUBKTNV-1" source="60xaNnohi2vOc2Uw0-Jc-2" target="60xaNnohi2vOc2Uw0-Jc-6">
          <mxGeometry relative="1" as="geometry">
            <Array as="points">
              <mxPoint x="330" y="170" />
            </Array>
          </mxGeometry>
        </mxCell>
        <mxCell id="60xaNnohi2vOc2Uw0-Jc-2" value="Internet" style="image;aspect=fixed;perimeter=ellipsePerimeter;html=1;align=center;shadow=0;dashed=0;spacingTop=3;image=img/lib/active_directory/internet_cloud.svg;" vertex="1" parent="WIyWlLk6GJQsqaUBKTNV-1">
          <mxGeometry x="375" y="240" width="50" height="31.5" as="geometry" />
        </mxCell>
        <mxCell id="60xaNnohi2vOc2Uw0-Jc-20" style="rounded=0;orthogonalLoop=1;jettySize=auto;html=1;entryX=0;entryY=0.5;entryDx=0;entryDy=0;shape=link;strokeColor=#8a8a8a;" edge="1" parent="WIyWlLk6GJQsqaUBKTNV-1" source="60xaNnohi2vOc2Uw0-Jc-3" target="60xaNnohi2vOc2Uw0-Jc-6">
          <mxGeometry relative="1" as="geometry" />
        </mxCell>
        <mxCell id="60xaNnohi2vOc2Uw0-Jc-21" value="3. Send Alerts" style="edgeLabel;html=1;align=center;verticalAlign=middle;resizable=0;points=[];" vertex="1" connectable="0" parent="60xaNnohi2vOc2Uw0-Jc-20">
          <mxGeometry x="-0.003" relative="1" as="geometry">
            <mxPoint as="offset" />
          </mxGeometry>
        </mxCell>
        <mxCell id="60xaNnohi2vOc2Uw0-Jc-31" style="rounded=0;orthogonalLoop=1;jettySize=auto;html=1;shape=link;strokeColor=#FF3333;" edge="1" parent="WIyWlLk6GJQsqaUBKTNV-1" source="60xaNnohi2vOc2Uw0-Jc-3" target="60xaNnohi2vOc2Uw0-Jc-6">
          <mxGeometry relative="1" as="geometry">
            <Array as="points">
              <mxPoint x="125" y="86" />
            </Array>
          </mxGeometry>
        </mxCell>
        <mxCell id="60xaNnohi2vOc2Uw0-Jc-32" value="8. Send Response Action" style="edgeLabel;html=1;align=center;verticalAlign=middle;resizable=0;points=[];" vertex="1" connectable="0" parent="60xaNnohi2vOc2Uw0-Jc-31">
          <mxGeometry x="-0.5198" relative="1" as="geometry">
            <mxPoint as="offset" />
          </mxGeometry>
        </mxCell>
        <mxCell id="60xaNnohi2vOc2Uw0-Jc-3" value="Wazuh Manager" style="image;aspect=fixed;perimeter=ellipsePerimeter;html=1;align=center;shadow=0;dashed=0;spacingTop=3;image=img/lib/active_directory/internet_cloud.svg;" vertex="1" parent="WIyWlLk6GJQsqaUBKTNV-1">
          <mxGeometry x="100" y="240" width="50" height="31.5" as="geometry" />
        </mxCell>
        <mxCell id="60xaNnohi2vOc2Uw0-Jc-5" value="TheHive" style="image;aspect=fixed;perimeter=ellipsePerimeter;html=1;align=center;shadow=0;dashed=0;spacingTop=3;image=img/lib/active_directory/internet_cloud.svg;" vertex="1" parent="WIyWlLk6GJQsqaUBKTNV-1">
          <mxGeometry x="660" y="240" width="50" height="31.5" as="geometry" />
        </mxCell>
        <mxCell id="60xaNnohi2vOc2Uw0-Jc-22" style="rounded=0;orthogonalLoop=1;jettySize=auto;html=1;shape=link;strokeColor=#0D0DFF;" edge="1" parent="WIyWlLk6GJQsqaUBKTNV-1" source="60xaNnohi2vOc2Uw0-Jc-6" target="60xaNnohi2vOc2Uw0-Jc-5">
          <mxGeometry relative="1" as="geometry" />
        </mxCell>
        <mxCell id="60xaNnohi2vOc2Uw0-Jc-23" value="5. Send Alerts" style="edgeLabel;html=1;align=center;verticalAlign=middle;resizable=0;points=[];" vertex="1" connectable="0" parent="60xaNnohi2vOc2Uw0-Jc-22">
          <mxGeometry x="-0.0435" y="2" relative="1" as="geometry">
            <mxPoint as="offset" />
          </mxGeometry>
        </mxCell>
        <mxCell id="60xaNnohi2vOc2Uw0-Jc-6" value="Shuffle" style="image;aspect=fixed;perimeter=ellipsePerimeter;html=1;align=center;shadow=0;dashed=0;spacingTop=3;image=img/lib/active_directory/internet_cloud.svg;" vertex="1" parent="WIyWlLk6GJQsqaUBKTNV-1">
          <mxGeometry x="375" y="70" width="50" height="31.5" as="geometry" />
        </mxCell>
        <mxCell id="60xaNnohi2vOc2Uw0-Jc-26" style="rounded=0;orthogonalLoop=1;jettySize=auto;html=1;entryX=0.75;entryY=1;entryDx=0;entryDy=0;shape=link;strokeColor=#FFD966;" edge="1" parent="WIyWlLk6GJQsqaUBKTNV-1" source="60xaNnohi2vOc2Uw0-Jc-8" target="60xaNnohi2vOc2Uw0-Jc-2">
          <mxGeometry relative="1" as="geometry" />
        </mxCell>
        <mxCell id="60xaNnohi2vOc2Uw0-Jc-27" value="7. Send &amp;amp; Receive" style="edgeLabel;html=1;align=center;verticalAlign=middle;resizable=0;points=[];" vertex="1" connectable="0" parent="60xaNnohi2vOc2Uw0-Jc-26">
          <mxGeometry x="0.0741" relative="1" as="geometry">
            <mxPoint as="offset" />
          </mxGeometry>
        </mxCell>
        <mxCell id="60xaNnohi2vOc2Uw0-Jc-28" style="rounded=0;orthogonalLoop=1;jettySize=auto;html=1;entryX=0.75;entryY=1;entryDx=0;entryDy=0;shape=link;strokeColor=#FF3333;" edge="1" parent="WIyWlLk6GJQsqaUBKTNV-1" source="60xaNnohi2vOc2Uw0-Jc-8" target="60xaNnohi2vOc2Uw0-Jc-2">
          <mxGeometry relative="1" as="geometry">
            <Array as="points">
              <mxPoint x="500" y="370" />
            </Array>
          </mxGeometry>
        </mxCell>
        <mxCell id="60xaNnohi2vOc2Uw0-Jc-29" value="8. Send Response Action" style="edgeLabel;html=1;align=center;verticalAlign=middle;resizable=0;points=[];" vertex="1" connectable="0" parent="60xaNnohi2vOc2Uw0-Jc-28">
          <mxGeometry x="0.0276" y="1" relative="1" as="geometry">
            <mxPoint as="offset" />
          </mxGeometry>
        </mxCell>
        <mxCell id="60xaNnohi2vOc2Uw0-Jc-8" value="&lt;div&gt;&lt;div&gt;SOC Analyst&lt;/div&gt;&lt;/div&gt;" style="fontColor=#0066CC;verticalAlign=top;verticalLabelPosition=bottom;labelPosition=center;align=center;html=1;outlineConnect=0;fillColor=#CCCCCC;strokeColor=#6881B3;gradientColor=none;gradientDirection=north;strokeWidth=2;shape=mxgraph.networks.pc;" vertex="1" parent="WIyWlLk6GJQsqaUBKTNV-1">
          <mxGeometry x="700" y="370" width="100" height="70" as="geometry" />
        </mxCell>
        <mxCell id="60xaNnohi2vOc2Uw0-Jc-11" style="edgeStyle=orthogonalEdgeStyle;rounded=0;orthogonalLoop=1;jettySize=auto;html=1;entryX=0.5;entryY=1;entryDx=0;entryDy=0;entryPerimeter=0;shape=link;strokeColor=#959393;" edge="1" parent="WIyWlLk6GJQsqaUBKTNV-1" source="60xaNnohi2vOc2Uw0-Jc-0" target="60xaNnohi2vOc2Uw0-Jc-1">
          <mxGeometry relative="1" as="geometry" />
        </mxCell>
        <mxCell id="60xaNnohi2vOc2Uw0-Jc-12" value="1. Send Events" style="edgeLabel;html=1;align=center;verticalAlign=middle;resizable=0;points=[];" vertex="1" connectable="0" parent="60xaNnohi2vOc2Uw0-Jc-11">
          <mxGeometry x="0.0353" y="-3" relative="1" as="geometry">
            <mxPoint as="offset" />
          </mxGeometry>
        </mxCell>
        <mxCell id="60xaNnohi2vOc2Uw0-Jc-24" style="rounded=0;orthogonalLoop=1;jettySize=auto;html=1;entryX=0.7;entryY=0.635;entryDx=0;entryDy=0;entryPerimeter=0;shape=link;strokeColor=#FFD966;" edge="1" parent="WIyWlLk6GJQsqaUBKTNV-1" source="60xaNnohi2vOc2Uw0-Jc-6" target="60xaNnohi2vOc2Uw0-Jc-2">
          <mxGeometry relative="1" as="geometry">
            <Array as="points">
              <mxPoint x="490" y="190" />
            </Array>
          </mxGeometry>
        </mxCell>
        <mxCell id="60xaNnohi2vOc2Uw0-Jc-25" value="6. Send Email" style="edgeLabel;html=1;align=center;verticalAlign=middle;resizable=0;points=[];" vertex="1" connectable="0" parent="60xaNnohi2vOc2Uw0-Jc-24">
          <mxGeometry x="0.2474" y="-1" relative="1" as="geometry">
            <mxPoint as="offset" />
          </mxGeometry>
        </mxCell>
        <mxCell id="60xaNnohi2vOc2Uw0-Jc-41" style="edgeStyle=orthogonalEdgeStyle;rounded=0;orthogonalLoop=1;jettySize=auto;html=1;" edge="1" parent="WIyWlLk6GJQsqaUBKTNV-1" source="60xaNnohi2vOc2Uw0-Jc-35" target="60xaNnohi2vOc2Uw0-Jc-36">
          <mxGeometry relative="1" as="geometry" />
        </mxCell>
        <mxCell id="60xaNnohi2vOc2Uw0-Jc-35" value="Windows 10&lt;div&gt;Send Events&lt;/div&gt;" style="text;html=1;align=center;verticalAlign=middle;resizable=0;points=[];autosize=1;strokeColor=none;fillColor=none;" vertex="1" parent="WIyWlLk6GJQsqaUBKTNV-1">
          <mxGeometry x="60" y="670" width="90" height="40" as="geometry" />
        </mxCell>
        <mxCell id="60xaNnohi2vOc2Uw0-Jc-42" style="edgeStyle=orthogonalEdgeStyle;rounded=0;orthogonalLoop=1;jettySize=auto;html=1;" edge="1" parent="WIyWlLk6GJQsqaUBKTNV-1" source="60xaNnohi2vOc2Uw0-Jc-36" target="60xaNnohi2vOc2Uw0-Jc-37">
          <mxGeometry relative="1" as="geometry" />
        </mxCell>
        <mxCell id="60xaNnohi2vOc2Uw0-Jc-36" value="Wazah Manager&lt;div&gt;Trigger Alerts &amp;amp; Perform Response Actions&lt;/div&gt;" style="text;html=1;align=center;verticalAlign=middle;resizable=0;points=[];autosize=1;strokeColor=none;fillColor=none;" vertex="1" parent="WIyWlLk6GJQsqaUBKTNV-1">
          <mxGeometry x="230" y="670" width="250" height="40" as="geometry" />
        </mxCell>
        <mxCell id="60xaNnohi2vOc2Uw0-Jc-37" value="Shuffle&lt;div&gt;Receive Wazuh Alerts &amp;amp; Send Response Actions&lt;/div&gt;" style="text;html=1;align=center;verticalAlign=middle;resizable=0;points=[];autosize=1;strokeColor=none;fillColor=none;" vertex="1" parent="WIyWlLk6GJQsqaUBKTNV-1">
          <mxGeometry x="520" y="670" width="280" height="40" as="geometry" />
        </mxCell>
        <mxCell id="60xaNnohi2vOc2Uw0-Jc-38" value="OSINT&lt;div&gt;Enrich IOCS&lt;/div&gt;" style="text;html=1;align=center;verticalAlign=middle;resizable=0;points=[];autosize=1;strokeColor=none;fillColor=none;" vertex="1" parent="WIyWlLk6GJQsqaUBKTNV-1">
          <mxGeometry x="615" y="565" width="90" height="40" as="geometry" />
        </mxCell>
        <mxCell id="60xaNnohi2vOc2Uw0-Jc-39" value="The Hive&lt;div&gt;Create Alert in Case Management&lt;/div&gt;" style="text;html=1;align=center;verticalAlign=middle;resizable=0;points=[];autosize=1;strokeColor=none;fillColor=none;" vertex="1" parent="WIyWlLk6GJQsqaUBKTNV-1">
          <mxGeometry x="560" y="790" width="200" height="40" as="geometry" />
        </mxCell>
        <mxCell id="60xaNnohi2vOc2Uw0-Jc-40" value="Email&lt;div&gt;Send Email &amp;amp; Responsive Action&lt;/div&gt;" style="text;html=1;align=center;verticalAlign=middle;resizable=0;points=[];autosize=1;strokeColor=none;fillColor=none;" vertex="1" parent="WIyWlLk6GJQsqaUBKTNV-1">
          <mxGeometry x="840" y="670" width="200" height="40" as="geometry" />
        </mxCell>
        <mxCell id="60xaNnohi2vOc2Uw0-Jc-43" style="edgeStyle=orthogonalEdgeStyle;rounded=0;orthogonalLoop=1;jettySize=auto;html=1;entryX=0.5;entryY=1.2;entryDx=0;entryDy=0;entryPerimeter=0;" edge="1" parent="WIyWlLk6GJQsqaUBKTNV-1" source="60xaNnohi2vOc2Uw0-Jc-37" target="60xaNnohi2vOc2Uw0-Jc-38">
          <mxGeometry relative="1" as="geometry" />
        </mxCell>
        <mxCell id="60xaNnohi2vOc2Uw0-Jc-44" style="edgeStyle=orthogonalEdgeStyle;rounded=0;orthogonalLoop=1;jettySize=auto;html=1;entryX=0.5;entryY=0.125;entryDx=0;entryDy=0;entryPerimeter=0;" edge="1" parent="WIyWlLk6GJQsqaUBKTNV-1" source="60xaNnohi2vOc2Uw0-Jc-37" target="60xaNnohi2vOc2Uw0-Jc-39">
          <mxGeometry relative="1" as="geometry" />
        </mxCell>
        <mxCell id="60xaNnohi2vOc2Uw0-Jc-45" style="edgeStyle=orthogonalEdgeStyle;rounded=0;orthogonalLoop=1;jettySize=auto;html=1;entryX=0;entryY=0.5;entryDx=0;entryDy=0;entryPerimeter=0;" edge="1" parent="WIyWlLk6GJQsqaUBKTNV-1" source="60xaNnohi2vOc2Uw0-Jc-37" target="60xaNnohi2vOc2Uw0-Jc-40">
          <mxGeometry relative="1" as="geometry" />
        </mxCell>
      </root>
    </mxGraphModel>
  </diagram>
</mxfile>
